<svg width="3780" height="3780" xmlns="http://www.w3.org/2000/svg" xmlns:xlink="http://www.w3.org/1999/xlink" overflow="hidden"><g><rect x="0" y="0" width="3780" height="3780" fill="#25D366"/><path d="M2063.68 2057.9 1642.89 1923.14C1163.24 2250.65 509.41 2126.58 182.516 1646.02-144.378 1165.46-20.5439 510.38 459.107 182.865 938.757-144.651 1592.59-20.5818 1919.48 459.981 2160.77 814.684 2163 1280.62 1925.14 1637.63Z" stroke="#FFFFFF" stroke-width="200.026" stroke-linecap="square" stroke-miterlimit="8" fill="#25D366" fill-rule="evenodd" transform="matrix(1.83697e-16 1 1 -1.83697e-16 837 839)"/><g><g><g><path d="M1890 1825.58C1809.48 1825.58 1745.06 1761.17 1745.06 1680.65 1745.06 1600.12 1809.48 1535.71 1890 1535.71 1970.52 1535.71 2034.94 1600.12 2034.94 1680.65 2034.94 1761.17 1970.52 1825.58 1890 1825.58ZM1890 1342.46C1778.88 1342.46 1674.2 1397.21 1611.4 1490.62 1548.59 1582.41 1535.71 1699.97 1575.97 1804.65L1728.96 2142.84 1861.01 2419.83C1865.84 2431.1 1877.12 2437.54 1890 2437.54 1902.88 2437.54 1914.16 2431.1 1918.99 2419.83L2051.04 2142.84 2204.03 1804.65C2244.29 1699.97 2231.41 1582.41 2168.6 1490.62 2105.8 1397.21 2001.12 1342.46 1890 1342.46Z" fill="#FFFFFF"/></g></g></g></g></svg>