<svg width="7950" height="7976" xmlns="http://www.w3.org/2000/svg" xmlns:xlink="http://www.w3.org/1999/xlink" xml:space="preserve" overflow="hidden"><g transform="translate(-2533 -2539)"><path d="M7092.31 7070.73 5646.18 6607.7C3997.75 7733.01 1750.7 7306.72 627.259 5655.56-496.186 4004.39-70.6031 1753.61 1577.83 628.304 3226.25-497.006 5473.3-70.7168 6596.75 1580.45 7425.96 2799.17 7433.64 4400.07 6616.16 5626.72Z" stroke="#25D366" stroke-width="687.5" stroke-linecap="square" stroke-miterlimit="8" fill="none" fill-rule="evenodd" transform="matrix(1.83697e-16 1 1 -1.83697e-16 2878 2884)"/><g><g><g><path d="M6496 6274.75C6219.44 6274.75 5998.19 6053.5 5998.19 5776.94 5998.19 5500.38 6219.44 5279.12 6496 5279.12 6772.56 5279.12 6993.81 5500.38 6993.81 5776.94 6993.81 6053.5 6772.56 6274.75 6496 6274.75ZM6496 4615.38C6114.34 4615.38 5754.81 4803.44 5539.09 5124.25 5323.38 5439.53 5279.12 5843.31 5417.41 6202.84L5942.88 7364.41 6396.44 8315.78C6413.03 8354.5 6451.75 8376.62 6496 8376.62 6540.25 8376.62 6578.97 8354.5 6595.56 8315.78L7049.12 7364.41 7574.59 6202.84C7712.88 5843.31 7668.62 5439.53 7452.91 5124.25 7237.19 4803.44 6877.66 4615.38 6496 4615.38Z" fill="#25D366"/></g></g></g></g></svg>